<svg xmlns="http://www.w3.org/2000/svg" xmlns:xlink="http://www.w3.org/1999/xlink" width="144" zoomAndPan="magnify" viewBox="0 0 108 107.999999" height="144" preserveAspectRatio="xMidYMid meet" version="1.0"><defs><g/><clipPath id="c096cd832f"><path d="M 37 32.257812 L 68 32.257812 L 68 72 L 37 72 Z M 37 32.257812 " clip-rule="nonzero"/></clipPath><clipPath id="4e65a4d47c"><path d="M 32.085938 32.257812 L 73.335938 32.257812 L 73.335938 75.007812 L 32.085938 75.007812 Z M 32.085938 32.257812 " clip-rule="nonzero"/></clipPath><clipPath id="86cb12e19e"><path d="M 33 57 L 72 57 L 72 75.007812 L 33 75.007812 Z M 33 57 " clip-rule="nonzero"/></clipPath><clipPath id="e2cc7a5b32"><path d="M 33 56 L 72 56 L 72 75.007812 L 33 75.007812 Z M 33 56 " clip-rule="nonzero"/></clipPath><clipPath id="84bb3db033"><path d="M 33 54 L 72 54 L 72 75.007812 L 33 75.007812 Z M 33 54 " clip-rule="nonzero"/></clipPath><clipPath id="fb94016fd5"><path d="M 33 59 L 72 59 L 72 75.007812 L 33 75.007812 Z M 33 59 " clip-rule="nonzero"/></clipPath><clipPath id="2442a835b9"><path d="M 40 32.257812 L 73.335938 32.257812 L 73.335938 74 L 40 74 Z M 40 32.257812 " clip-rule="nonzero"/></clipPath><clipPath id="b4854abfef"><path d="M 32.085938 32.257812 L 65 32.257812 L 65 74 L 32.085938 74 Z M 32.085938 32.257812 " clip-rule="nonzero"/></clipPath><clipPath id="e2314a88d4"><path d="M 6 5.742188 L 102 5.742188 L 102 100.992188 L 6 100.992188 Z M 6 5.742188 " clip-rule="nonzero"/></clipPath><clipPath id="7dc55e01da"><path d="M 63 40 L 78.136719 40 L 78.136719 67 L 63 67 Z M 63 40 " clip-rule="nonzero"/></clipPath><clipPath id="b97419e8aa"><path d="M 30.136719 40 L 45 40 L 45 67 L 30.136719 67 Z M 30.136719 40 " clip-rule="nonzero"/></clipPath><clipPath id="f6a05006a9"><path d="M 46 35.589844 L 62 35.589844 L 62 71.589844 L 46 71.589844 Z M 46 35.589844 " clip-rule="nonzero"/></clipPath></defs><g clip-path="url(#c096cd832f)"><path fill="#ffffff" d="M 62.363281 36.542969 C 62.363281 36.542969 61.566406 35.886719 60.847656 35.410156 C 57.855469 33.40625 55.0625 32.726562 52.574219 32.773438 C 50.089844 32.726562 47.296875 33.40625 44.304688 35.410156 C 43.585938 35.886719 42.789062 36.542969 42.789062 36.542969 C 32.207031 45.898438 39.34375 57.289062 44.027344 62.347656 C 44.246094 62.582031 44.457031 62.800781 44.65625 63.007812 C 45.738281 64.257812 47.929688 67.253906 48.8125 71.9375 L 56.339844 71.9375 C 57.222656 67.253906 59.414062 64.257812 60.496094 63.007812 C 60.699219 62.800781 60.910156 62.582031 61.125 62.347656 C 65.808594 57.289062 72.945312 45.898438 62.363281 36.542969 " fill-opacity="1" fill-rule="nonzero"/></g><g clip-path="url(#4e65a4d47c)"><path stroke-linecap="butt" transform="matrix(0.022636, 0, 0, -0.0229469, 4.452073, 102.452588)" fill="none" stroke-linejoin="miter" d="M 2558.371102 2872.272039 C 2558.371102 2872.272039 2523.167175 2900.870726 2491.414613 2921.638819 C 2359.227318 3008.96695 2235.841004 3038.587018 2125.915015 3036.544255 C 2016.161595 3038.587018 1892.775281 3008.96695 1760.587986 2921.638819 C 1728.835424 2900.870726 1693.631497 2872.272039 1693.631497 2872.272039 C 1226.144051 2464.570531 1541.426282 1968.17905 1748.335639 1747.730844 C 1757.999462 1737.517027 1767.318148 1727.984132 1776.11913 1718.961927 C 1823.920541 1664.488239 1920.731341 1533.921618 1959.73177 1329.815519 L 2292.270829 1329.815519 C 2331.271258 1533.921618 2428.082058 1664.488239 2475.883469 1718.961927 C 2484.857019 1727.984132 2494.175705 1737.517027 2503.66696 1747.730844 C 2710.576317 1968.17905 3025.858548 2464.570531 2558.371102 2872.272039 Z M 2558.371102 2872.272039 " stroke="#040200" stroke-width="40" stroke-opacity="1" stroke-miterlimit="10"/></g><path stroke-linecap="round" transform="matrix(0.022636, 0, 0, -0.0229469, 4.452073, 102.452588)" fill-opacity="1" fill="#ffffff" fill-rule="nonzero" stroke-linejoin="round" d="M 1922.802161 1934.984146 C 1922.802161 1934.984146 2034.281264 1817.014565 2008.050886 1478.256318 " stroke="#040200" stroke-width="40" stroke-opacity="1" stroke-miterlimit="10"/><path stroke-linecap="round" transform="matrix(0.022636, 0, 0, -0.0229469, 4.452073, 102.452588)" fill-opacity="1" fill="#ffffff" fill-rule="nonzero" stroke-linejoin="round" d="M 2309.527656 1934.984146 C 2309.527656 1934.984146 2186.831615 1814.461111 2213.23456 1478.256318 " stroke="#040200" stroke-width="40" stroke-opacity="1" stroke-miterlimit="10"/><path fill="#ffffff" d="M 58.484375 71.839844 C 58.484375 72.371094 58.058594 72.804688 57.535156 72.804688 L 47.707031 72.804688 C 47.183594 72.804688 46.753906 72.371094 46.753906 71.839844 C 46.753906 71.308594 47.183594 70.875 47.707031 70.875 L 57.535156 70.875 C 58.058594 70.875 58.484375 71.308594 58.484375 71.839844 " fill-opacity="1" fill-rule="nonzero"/><g clip-path="url(#86cb12e19e)"><path stroke-linecap="butt" transform="matrix(0.022636, 0, 0, -0.0229469, 4.452073, 102.452588)" fill="none" stroke-linejoin="miter" d="M 2387.010809 1334.071276 C 2387.010809 1310.919958 2368.200868 1292.024398 2345.076719 1292.024398 L 1910.89495 1292.024398 C 1887.770802 1292.024398 1868.788292 1310.919958 1868.788292 1334.071276 C 1868.788292 1357.222593 1887.770802 1376.118154 1910.89495 1376.118154 L 2345.076719 1376.118154 C 2368.200868 1376.118154 2387.010809 1357.222593 2387.010809 1334.071276 Z M 2387.010809 1334.071276 " stroke="#040200" stroke-width="40" stroke-opacity="1" stroke-miterlimit="10"/></g><path fill="#ffffff" d="M 58.484375 70.046875 C 58.484375 70.578125 58.058594 71.011719 57.535156 71.011719 L 47.707031 71.011719 C 47.183594 71.011719 46.753906 70.578125 46.753906 70.046875 C 46.753906 69.511719 47.183594 69.082031 47.707031 69.082031 L 57.535156 69.082031 C 58.058594 69.082031 58.484375 69.511719 58.484375 70.046875 " fill-opacity="1" fill-rule="nonzero"/><g clip-path="url(#e2cc7a5b32)"><path stroke-linecap="butt" transform="matrix(0.022636, 0, 0, -0.0229469, 4.452073, 102.452588)" fill="none" stroke-linejoin="miter" d="M 2387.010809 1412.206972 C 2387.010809 1389.055654 2368.200868 1370.160094 2345.076719 1370.160094 L 1910.89495 1370.160094 C 1887.770802 1370.160094 1868.788292 1389.055654 1868.788292 1412.206972 C 1868.788292 1435.528519 1887.770802 1454.25385 1910.89495 1454.25385 L 2345.076719 1454.25385 C 2368.200868 1454.25385 2387.010809 1435.528519 2387.010809 1412.206972 Z M 2387.010809 1412.206972 " stroke="#040200" stroke-width="40" stroke-opacity="1" stroke-miterlimit="10"/></g><path fill="#ffffff" d="M 58.484375 68.476562 C 58.484375 69.011719 58.058594 69.441406 57.535156 69.441406 L 47.707031 69.441406 C 47.183594 69.441406 46.753906 69.011719 46.753906 68.476562 C 46.753906 67.945312 47.183594 67.515625 47.707031 67.515625 L 57.535156 67.515625 C 58.058594 67.515625 58.484375 67.945312 58.484375 68.476562 " fill-opacity="1" fill-rule="nonzero"/><g clip-path="url(#84bb3db033)"><path stroke-linecap="butt" transform="matrix(0.022636, 0, 0, -0.0229469, 4.452073, 102.452588)" fill="none" stroke-linejoin="miter" d="M 2387.010809 1480.639542 C 2387.010809 1457.317995 2368.200868 1438.592664 2345.076719 1438.592664 L 1910.89495 1438.592664 C 1887.770802 1438.592664 1868.788292 1457.317995 1868.788292 1480.639542 C 1868.788292 1503.79086 1887.770802 1522.51619 1910.89495 1522.51619 L 2345.076719 1522.51619 C 2368.200868 1522.51619 2387.010809 1503.79086 2387.010809 1480.639542 Z M 2387.010809 1480.639542 " stroke="#040200" stroke-width="40" stroke-opacity="1" stroke-miterlimit="10"/></g><path fill="#ffffff" d="M 58.484375 73.597656 C 58.484375 74.132812 58.058594 74.5625 57.535156 74.5625 L 47.707031 74.5625 C 47.183594 74.5625 46.753906 74.132812 46.753906 73.597656 C 46.753906 73.066406 47.183594 72.632812 47.707031 72.632812 L 57.535156 72.632812 C 58.058594 72.632812 58.484375 73.066406 58.484375 73.597656 " fill-opacity="1" fill-rule="nonzero"/><g clip-path="url(#fb94016fd5)"><path stroke-linecap="butt" transform="matrix(0.022636, 0, 0, -0.0229469, 4.452073, 102.452588)" fill="none" stroke-linejoin="miter" d="M 2387.010809 1257.467652 C 2387.010809 1234.146104 2368.200868 1215.420774 2345.076719 1215.420774 L 1910.89495 1215.420774 C 1887.770802 1215.420774 1868.788292 1234.146104 1868.788292 1257.467652 C 1868.788292 1280.618969 1887.770802 1299.51453 1910.89495 1299.51453 L 2345.076719 1299.51453 C 2368.200868 1299.51453 2387.010809 1280.618969 2387.010809 1257.467652 Z M 2387.010809 1257.467652 " stroke="#040200" stroke-width="40" stroke-opacity="1" stroke-miterlimit="10"/></g><path fill="#ffffff" d="M 55.132812 38.878906 C 55.730469 38.878906 56.269531 39.140625 56.621094 39.558594 C 56.855469 39.488281 57.101562 39.449219 57.363281 39.449219 C 58.609375 39.449219 59.625 40.328125 59.625 41.417969 C 59.625 41.433594 59.621094 41.453125 59.621094 41.472656 C 60.289062 41.769531 60.746094 42.375 60.746094 43.074219 C 60.746094 43.457031 60.605469 43.816406 60.367188 44.109375 C 61.003906 44.546875 61.414062 45.222656 61.414062 45.976562 C 61.414062 46.375 61.300781 46.746094 61.105469 47.074219 C 62.175781 47.546875 62.910156 48.511719 62.910156 49.628906 C 62.910156 50.714844 62.21875 51.660156 61.191406 52.144531 C 61.335938 52.433594 61.414062 52.753906 61.414062 53.085938 C 61.414062 53.757812 61.089844 54.367188 60.574219 54.800781 C 60.683594 55.019531 60.746094 55.265625 60.746094 55.523438 C 60.746094 56.277344 60.214844 56.921875 59.460938 57.191406 C 59.566406 57.417969 59.625 57.664062 59.625 57.925781 C 59.625 59.015625 58.609375 59.894531 57.363281 59.894531 C 56.996094 59.894531 56.648438 59.816406 56.339844 59.683594 C 56.011719 59.9375 55.589844 60.09375 55.132812 60.09375 C 54.070312 60.09375 53.207031 59.269531 53.207031 58.253906 L 53.207031 40.722656 C 53.207031 39.703125 54.070312 38.878906 55.132812 38.878906 " fill-opacity="1" fill-rule="nonzero"/><g clip-path="url(#2442a835b9)"><path stroke-linecap="butt" transform="matrix(0.022636, 0, 0, -0.0229469, 4.452073, 102.452588)" fill="none" stroke-linejoin="miter" d="M 2238.947233 2770.474335 C 2265.350178 2770.474335 2289.1646 2759.068907 2304.695744 2740.854267 C 2315.04984 2743.918412 2325.921641 2745.620715 2337.483716 2745.620715 C 2392.532994 2745.620715 2437.400744 2707.318903 2437.400744 2659.824656 C 2437.400744 2659.143735 2437.228176 2658.292584 2437.228176 2657.441432 C 2466.73735 2644.503932 2486.927838 2618.118239 2486.927838 2587.64702 C 2486.927838 2570.964453 2480.71538 2555.303268 2470.188716 2542.535997 C 2498.317344 2523.470206 2516.437012 2494.020369 2516.437012 2461.165926 C 2516.437012 2443.802438 2511.432533 2427.630561 2502.804119 2413.331218 C 2550.087825 2392.733355 2582.53066 2350.686477 2582.53066 2302.000619 C 2582.53066 2254.676602 2551.986076 2213.480876 2506.600621 2192.372322 C 2512.985647 2179.775281 2516.437012 2165.816399 2516.437012 2151.346825 C 2516.437012 2122.067218 2502.113846 2095.511295 2479.334834 2076.615735 C 2484.166746 2067.082839 2486.927838 2056.358332 2486.927838 2045.123134 C 2486.927838 2012.268691 2463.458553 1984.180695 2430.152877 1972.434806 C 2434.81222 1962.56145 2437.400744 1951.836943 2437.400744 1940.431515 C 2437.400744 1892.937268 2392.532994 1854.635456 2337.483716 1854.635456 C 2321.262298 1854.635456 2305.903722 1858.040062 2292.270829 1863.827891 C 2277.775094 1852.762923 2259.137721 1845.953712 2238.947233 1845.953712 C 2192.008663 1845.953712 2153.871075 1881.8723 2153.871075 1926.132172 L 2153.871075 2690.125645 C 2153.871075 2734.555747 2192.008663 2770.474335 2238.947233 2770.474335 Z M 2238.947233 2770.474335 " stroke="#040200" stroke-width="40" stroke-opacity="1" stroke-miterlimit="10"/></g><path stroke-linecap="round" transform="matrix(0.022636, 0, 0, -0.0229469, 4.452073, 102.452588)" fill-opacity="1" fill="#ffffff" fill-rule="nonzero" stroke-linejoin="round" d="M 2304.523176 2731.832063 C 2304.523176 2731.832063 2341.107649 2695.743244 2295.549626 2659.484196 " stroke="#040200" stroke-width="40" stroke-opacity="1" stroke-miterlimit="10"/><path stroke-linecap="round" transform="matrix(0.022636, 0, 0, -0.0229469, 4.452073, 102.452588)" fill-opacity="1" fill="#ffffff" fill-rule="nonzero" stroke-linejoin="round" d="M 2308.492246 1946.049114 C 2308.492246 1946.049114 2341.280217 1906.72592 2292.270829 1874.892859 " stroke="#040200" stroke-width="40" stroke-opacity="1" stroke-miterlimit="10"/><path stroke-linecap="round" transform="matrix(0.022636, 0, 0, -0.0229469, 4.452073, 102.452588)" fill-opacity="1" fill="#ffffff" fill-rule="nonzero" stroke-linejoin="round" d="M 2427.564353 2660.165117 C 2427.564353 2660.165117 2389.254197 2681.954592 2363.541524 2654.547518 " stroke="#040200" stroke-width="40" stroke-opacity="1" stroke-miterlimit="10"/><path stroke-linecap="round" transform="matrix(0.022636, 0, 0, -0.0229469, 4.452073, 102.452588)" fill-opacity="1" fill="#ffffff" fill-rule="nonzero" stroke-linejoin="round" d="M 2473.122376 2082.744025 C 2464.839099 2097.894519 2447.927409 2113.215244 2415.139437 2115.768698 " stroke="#040200" stroke-width="40" stroke-opacity="1" stroke-miterlimit="10"/><path stroke-linecap="round" transform="matrix(0.022636, 0, 0, -0.0229469, 4.452073, 102.452588)" fill-opacity="1" fill="#ffffff" fill-rule="nonzero" stroke-linejoin="round" d="M 2558.025966 2232.546666 C 2558.025966 2232.546666 2497.454503 2143.175772 2385.9754 2211.608343 " stroke="#040200" stroke-width="40" stroke-opacity="1" stroke-miterlimit="10"/><path stroke-linecap="round" transform="matrix(0.022636, 0, 0, -0.0229469, 4.452073, 102.452588)" fill-opacity="1" fill="#ffffff" fill-rule="nonzero" stroke-linejoin="round" d="M 2430.325445 1908.938914 C 2430.325445 1908.938914 2465.184236 1980.94632 2368.373436 2033.547475 " stroke="#040200" stroke-width="40" stroke-opacity="1" stroke-miterlimit="10"/><path stroke-linecap="round" transform="matrix(0.022636, 0, 0, -0.0229469, 4.452073, 102.452588)" fill-opacity="1" fill="#ffffff" fill-rule="nonzero" stroke-linejoin="round" d="M 2511.432533 2490.445533 C 2511.432533 2490.445533 2486.75527 2582.880572 2368.373436 2543.046688 " stroke="#040200" stroke-width="40" stroke-opacity="1" stroke-miterlimit="10"/><path stroke-linecap="round" transform="matrix(0.022636, 0, 0, -0.0229469, 4.452073, 102.452588)" fill-opacity="1" fill="#ffffff" fill-rule="nonzero" stroke-linejoin="round" d="M 2482.268495 2393.073816 C 2482.268495 2393.073816 2450.515933 2358.176609 2398.745452 2376.561479 " stroke="#040200" stroke-width="40" stroke-opacity="1" stroke-miterlimit="10"/><path fill="#ffffff" d="M 50.023438 38.878906 C 49.421875 38.878906 48.882812 39.140625 48.53125 39.558594 C 48.300781 39.488281 48.050781 39.449219 47.789062 39.449219 C 46.542969 39.449219 45.527344 40.328125 45.527344 41.417969 C 45.527344 41.433594 45.53125 41.453125 45.53125 41.472656 C 44.863281 41.769531 44.40625 42.375 44.40625 43.074219 C 44.40625 43.457031 44.542969 43.816406 44.785156 44.109375 C 44.148438 44.546875 43.738281 45.222656 43.738281 45.976562 C 43.738281 46.375 43.851562 46.746094 44.046875 47.074219 C 42.976562 47.546875 42.242188 48.511719 42.242188 49.628906 C 42.242188 50.714844 42.933594 51.660156 43.960938 52.144531 C 43.816406 52.433594 43.738281 52.753906 43.738281 53.085938 C 43.738281 53.757812 44.0625 54.367188 44.578125 54.800781 C 44.46875 55.019531 44.40625 55.265625 44.40625 55.523438 C 44.40625 56.277344 44.9375 56.921875 45.691406 57.191406 C 45.589844 57.417969 45.527344 57.664062 45.527344 57.925781 C 45.527344 59.015625 46.542969 59.894531 47.789062 59.894531 C 48.15625 59.894531 48.503906 59.816406 48.8125 59.683594 C 49.140625 59.9375 49.5625 60.09375 50.023438 60.09375 C 51.082031 60.09375 51.941406 59.269531 51.941406 58.253906 L 51.941406 40.722656 C 51.941406 39.703125 51.082031 38.878906 50.023438 38.878906 " fill-opacity="1" fill-rule="nonzero"/><g clip-path="url(#b4854abfef)"><path stroke-linecap="butt" transform="matrix(0.022636, 0, 0, -0.0229469, 4.452073, 102.452588)" fill="none" stroke-linejoin="miter" d="M 2013.227934 2770.474335 C 1986.652421 2770.474335 1962.837999 2759.068907 1947.306855 2740.854267 C 1937.125327 2743.918412 1926.080958 2745.620715 1914.518884 2745.620715 C 1859.469605 2745.620715 1814.601855 2707.318903 1814.601855 2659.824656 C 1814.601855 2659.143735 1814.774423 2658.292584 1814.774423 2657.441432 C 1785.265249 2644.503932 1765.074761 2618.118239 1765.074761 2587.64702 C 1765.074761 2570.964453 1771.11465 2555.303268 1781.813883 2542.535997 C 1753.685255 2523.470206 1735.565587 2494.020369 1735.565587 2461.165926 C 1735.565587 2443.802438 1740.570066 2427.630561 1749.19848 2413.331218 C 1701.914774 2392.733355 1669.471939 2350.686477 1669.471939 2302.000619 C 1669.471939 2254.676602 1700.016523 2213.480876 1745.401978 2192.372322 C 1739.016952 2179.775281 1735.565587 2165.816399 1735.565587 2151.346825 C 1735.565587 2122.067218 1749.888753 2095.511295 1772.667765 2076.615735 C 1767.835853 2067.082839 1765.074761 2056.358332 1765.074761 2045.123134 C 1765.074761 2012.268691 1788.544046 1984.180695 1821.849722 1972.434806 C 1817.362947 1962.56145 1814.601855 1951.836943 1814.601855 1940.431515 C 1814.601855 1892.937268 1859.469605 1854.635456 1914.518884 1854.635456 C 1930.740301 1854.635456 1946.098877 1858.040062 1959.73177 1863.827891 C 1974.227505 1852.762923 1992.864879 1845.953712 2013.227934 1845.953712 C 2059.993936 1845.953712 2097.958955 1881.8723 2097.958955 1926.132172 L 2097.958955 2690.125645 C 2097.958955 2734.555747 2059.993936 2770.474335 2013.227934 2770.474335 Z M 2013.227934 2770.474335 " stroke="#040200" stroke-width="40" stroke-opacity="1" stroke-miterlimit="10"/></g><path stroke-linecap="round" transform="matrix(0.022636, 0, 0, -0.0229469, 4.452073, 102.452588)" fill-opacity="1" fill="#ffffff" fill-rule="nonzero" stroke-linejoin="round" d="M 1947.651992 2731.832063 C 1947.651992 2731.832063 1911.067518 2695.743244 1956.625542 2659.484196 " stroke="#040200" stroke-width="40" stroke-opacity="1" stroke-miterlimit="10"/><path stroke-linecap="round" transform="matrix(0.022636, 0, 0, -0.0229469, 4.452073, 102.452588)" fill-opacity="1" fill="#ffffff" fill-rule="nonzero" stroke-linejoin="round" d="M 1943.510353 1946.049114 C 1943.510353 1946.049114 1910.722382 1906.72592 1959.73177 1874.892859 " stroke="#040200" stroke-width="40" stroke-opacity="1" stroke-miterlimit="10"/><path stroke-linecap="round" transform="matrix(0.022636, 0, 0, -0.0229469, 4.452073, 102.452588)" fill-opacity="1" fill="#ffffff" fill-rule="nonzero" stroke-linejoin="round" d="M 1824.438246 2660.165117 C 1824.438246 2660.165117 1862.748402 2681.954592 1888.461075 2654.547518 " stroke="#040200" stroke-width="40" stroke-opacity="1" stroke-miterlimit="10"/><path stroke-linecap="round" transform="matrix(0.022636, 0, 0, -0.0229469, 4.452073, 102.452588)" fill-opacity="1" fill="#ffffff" fill-rule="nonzero" stroke-linejoin="round" d="M 1778.880223 2082.744025 C 1787.1635 2097.894519 1803.902622 2113.215244 1836.863162 2115.768698 " stroke="#040200" stroke-width="40" stroke-opacity="1" stroke-miterlimit="10"/><path stroke-linecap="round" transform="matrix(0.022636, 0, 0, -0.0229469, 4.452073, 102.452588)" fill-opacity="1" fill="#ffffff" fill-rule="nonzero" stroke-linejoin="round" d="M 1693.976633 2232.546666 C 1693.976633 2232.546666 1754.548096 2143.175772 1866.199768 2211.608343 " stroke="#040200" stroke-width="40" stroke-opacity="1" stroke-miterlimit="10"/><path stroke-linecap="round" transform="matrix(0.022636, 0, 0, -0.0229469, 4.452073, 102.452588)" fill-opacity="1" fill="#ffffff" fill-rule="nonzero" stroke-linejoin="round" d="M 1821.677154 1908.938914 C 1821.677154 1908.938914 1786.818363 1980.94632 1883.629163 2033.547475 " stroke="#040200" stroke-width="40" stroke-opacity="1" stroke-miterlimit="10"/><path stroke-linecap="round" transform="matrix(0.022636, 0, 0, -0.0229469, 4.452073, 102.452588)" fill-opacity="1" fill="#ffffff" fill-rule="nonzero" stroke-linejoin="round" d="M 1740.570066 2490.445533 C 1740.570066 2490.445533 1765.247329 2582.880572 1883.629163 2543.046688 " stroke="#040200" stroke-width="40" stroke-opacity="1" stroke-miterlimit="10"/><path stroke-linecap="round" transform="matrix(0.022636, 0, 0, -0.0229469, 4.452073, 102.452588)" fill-opacity="1" fill="#ffffff" fill-rule="nonzero" stroke-linejoin="round" d="M 1769.734104 2393.073816 C 1769.734104 2393.073816 1801.314098 2358.176609 1853.257147 2376.561479 " stroke="#040200" stroke-width="40" stroke-opacity="1" stroke-miterlimit="10"/><path stroke-linecap="round" transform="matrix(0.022636, 0, 0, -0.0229469, 4.452073, 102.452588)" fill="none" stroke-linejoin="round" d="M 2125.915015 2954.833723 L 2125.915015 2867.335361 " stroke="#040200" stroke-width="40" stroke-opacity="1" stroke-miterlimit="10"/><path stroke-linecap="round" transform="matrix(0.022636, 0, 0, -0.0229469, 4.452073, 102.452588)" fill-opacity="1" fill="#ffffff" fill-rule="nonzero" stroke-linejoin="round" d="M 1708.644936 2774.559862 L 1771.11465 2713.447193 " stroke="#040200" stroke-width="40" stroke-opacity="1" stroke-miterlimit="10"/><path stroke-linecap="round" transform="matrix(0.022636, 0, 0, -0.0229469, 4.452073, 102.452588)" fill-opacity="1" fill="#ffffff" fill-rule="nonzero" stroke-linejoin="round" d="M 1901.403695 2894.231745 L 1931.258006 2812.010522 " stroke="#040200" stroke-width="40" stroke-opacity="1" stroke-miterlimit="10"/><path stroke-linecap="round" transform="matrix(0.022636, 0, 0, -0.0229469, 4.452073, 102.452588)" fill-opacity="1" fill="#ffffff" fill-rule="nonzero" stroke-linejoin="round" d="M 2355.775952 2894.231745 L 2325.921641 2812.010522 " stroke="#040200" stroke-width="40" stroke-opacity="1" stroke-miterlimit="10"/><path stroke-linecap="round" transform="matrix(0.022636, 0, 0, -0.0229469, 4.452073, 102.452588)" fill-opacity="1" fill="#ffffff" fill-rule="nonzero" stroke-linejoin="round" d="M 2544.738209 2774.559862 L 2482.268495 2713.447193 " stroke="#040200" stroke-width="40" stroke-opacity="1" stroke-miterlimit="10"/><path fill="#463f4f" d="M 100.589844 53.363281 C 100.589844 54.886719 100.515625 56.40625 100.367188 57.921875 C 100.21875 59.4375 99.992188 60.941406 99.695312 62.4375 C 99.398438 63.929688 99.027344 65.40625 98.585938 66.863281 C 98.140625 68.320312 97.628906 69.753906 97.042969 71.160156 C 96.460938 72.566406 95.808594 73.941406 95.089844 75.285156 C 94.371094 76.628906 93.585938 77.933594 92.738281 79.199219 C 91.890625 80.46875 90.984375 81.6875 90.015625 82.867188 C 89.046875 84.042969 88.023438 85.171875 86.945312 86.246094 C 85.867188 87.324219 84.738281 88.347656 83.558594 89.3125 C 82.378906 90.277344 81.152344 91.183594 79.882812 92.03125 C 78.617188 92.878906 77.308594 93.660156 75.960938 94.378906 C 74.617188 95.09375 73.238281 95.746094 71.828125 96.328125 C 70.417969 96.910156 68.984375 97.425781 67.523438 97.867188 C 66.0625 98.308594 64.585938 98.679688 63.089844 98.976562 C 61.59375 99.273438 60.085938 99.496094 58.566406 99.644531 C 57.046875 99.792969 55.527344 99.867188 54 99.867188 C 52.472656 99.867188 50.953125 99.792969 49.433594 99.644531 C 47.914062 99.496094 46.40625 99.273438 44.910156 98.976562 C 43.414062 98.679688 41.9375 98.308594 40.476562 97.867188 C 39.015625 97.425781 37.582031 96.910156 36.171875 96.328125 C 34.761719 95.746094 33.382812 95.09375 32.039062 94.378906 C 30.691406 93.660156 29.382812 92.878906 28.117188 92.03125 C 26.847656 91.183594 25.621094 90.277344 24.441406 89.3125 C 23.261719 88.347656 22.132812 87.324219 21.054688 86.246094 C 19.976562 85.171875 18.953125 84.042969 17.984375 82.867188 C 17.015625 81.6875 16.109375 80.46875 15.261719 79.199219 C 14.414062 77.933594 13.628906 76.628906 12.910156 75.285156 C 12.191406 73.941406 11.539062 72.566406 10.957031 71.160156 C 10.371094 69.753906 9.859375 68.320312 9.414062 66.863281 C 8.972656 65.40625 8.601562 63.929688 8.304688 62.4375 C 8.007812 60.941406 7.78125 59.4375 7.632812 57.921875 C 7.484375 56.40625 7.410156 54.886719 7.410156 53.363281 C 7.410156 51.839844 7.484375 50.320312 7.632812 48.804688 C 7.78125 47.289062 8.007812 45.785156 8.304688 44.292969 C 8.601562 42.796875 8.972656 41.320312 9.414062 39.863281 C 9.859375 38.40625 10.371094 36.972656 10.957031 35.566406 C 11.539062 34.160156 12.191406 32.785156 12.910156 31.441406 C 13.628906 30.097656 14.414062 28.792969 15.261719 27.527344 C 16.109375 26.261719 17.015625 25.039062 17.984375 23.859375 C 18.953125 22.683594 19.976562 21.558594 21.054688 20.480469 C 22.132812 19.402344 23.261719 18.382812 24.441406 17.414062 C 25.621094 16.449219 26.847656 15.542969 28.117188 14.695312 C 29.382812 13.851562 30.691406 13.066406 32.039062 12.351562 C 33.382812 11.632812 34.761719 10.980469 36.171875 10.398438 C 37.582031 9.816406 39.015625 9.304688 40.476562 8.859375 C 41.9375 8.417969 43.414062 8.050781 44.910156 7.753906 C 46.40625 7.457031 47.914062 7.230469 49.433594 7.082031 C 50.953125 6.933594 52.472656 6.859375 54 6.859375 C 55.527344 6.859375 57.046875 6.933594 58.566406 7.082031 C 60.085938 7.230469 61.59375 7.457031 63.089844 7.753906 C 64.585938 8.050781 66.0625 8.417969 67.523438 8.859375 C 68.984375 9.304688 70.417969 9.816406 71.828125 10.398438 C 73.238281 10.980469 74.617188 11.632812 75.960938 12.351562 C 77.308594 13.066406 78.617188 13.851562 79.882812 14.695312 C 81.152344 15.542969 82.378906 16.449219 83.558594 17.414062 C 84.738281 18.382812 85.867188 19.402344 86.945312 20.480469 C 88.023438 21.558594 89.046875 22.683594 90.015625 23.859375 C 90.984375 25.039062 91.890625 26.261719 92.738281 27.527344 C 93.585938 28.792969 94.371094 30.097656 95.089844 31.441406 C 95.808594 32.785156 96.460938 34.160156 97.042969 35.566406 C 97.628906 36.972656 98.140625 38.40625 98.585938 39.863281 C 99.027344 41.320312 99.398438 42.796875 99.695312 44.292969 C 99.992188 45.785156 100.21875 47.289062 100.367188 48.804688 C 100.515625 50.320312 100.589844 51.839844 100.589844 53.363281 Z M 100.589844 53.363281 " fill-opacity="1" fill-rule="nonzero"/><g clip-path="url(#e2314a88d4)"><path fill="#000000" d="M 54 100.984375 C 41.257812 100.984375 29.277344 96.03125 20.265625 87.039062 C 11.253906 78.042969 6.292969 66.085938 6.292969 53.363281 C 6.292969 40.644531 11.253906 28.683594 20.265625 19.691406 C 29.273438 10.695312 41.257812 5.742188 54 5.742188 C 66.742188 5.742188 78.722656 10.695312 87.734375 19.691406 C 96.746094 28.683594 101.707031 40.640625 101.707031 53.363281 C 101.707031 66.085938 96.746094 78.042969 87.734375 87.039062 C 78.722656 96.03125 66.742188 100.984375 54 100.984375 Z M 54 7.972656 C 41.855469 7.972656 30.433594 12.695312 21.847656 21.269531 C 13.257812 29.84375 8.527344 41.238281 8.527344 53.363281 C 8.527344 65.488281 13.257812 76.886719 21.847656 85.457031 C 30.433594 94.03125 41.851562 98.753906 54 98.753906 C 66.144531 98.753906 77.566406 94.03125 86.152344 85.457031 C 94.742188 76.886719 99.472656 65.488281 99.472656 53.363281 C 99.472656 41.242188 94.742188 29.84375 86.152344 21.269531 C 77.566406 12.695312 66.144531 7.972656 54 7.972656 Z M 54 7.972656 " fill-opacity="1" fill-rule="nonzero"/></g><path fill="#7ed957" d="M 1.167969 45.683594 L 106.832031 45.683594 L 106.832031 61.039062 L 1.167969 61.039062 Z M 1.167969 45.683594 " fill-opacity="1" fill-rule="nonzero"/><path fill="#000000" d="M 107.949219 62.15625 L 0.0507812 62.15625 L 0.0507812 44.570312 L 107.949219 44.570312 Z M 2.285156 59.925781 L 105.710938 59.925781 L 105.710938 46.800781 L 2.285156 46.800781 Z M 2.285156 59.925781 " fill-opacity="1" fill-rule="nonzero"/><path fill="#000000" d="M 80.113281 53.363281 C 80.113281 54.21875 80.070312 55.070312 79.984375 55.917969 C 79.902344 56.769531 79.777344 57.609375 79.609375 58.449219 C 79.441406 59.285156 79.234375 60.113281 78.988281 60.929688 C 78.738281 61.746094 78.449219 62.550781 78.125 63.335938 C 77.796875 64.125 77.429688 64.898438 77.027344 65.648438 C 76.625 66.402344 76.1875 67.132812 75.710938 67.84375 C 75.234375 68.554688 74.726562 69.238281 74.183594 69.898438 C 73.640625 70.558594 73.066406 71.191406 72.464844 71.792969 C 71.859375 72.398438 71.226562 72.96875 70.566406 73.511719 C 69.902344 74.050781 69.21875 74.558594 68.507812 75.035156 C 67.796875 75.507812 67.0625 75.945312 66.308594 76.347656 C 65.554688 76.753906 64.78125 77.117188 63.992188 77.441406 C 63.203125 77.769531 62.398438 78.058594 61.578125 78.304688 C 60.761719 78.550781 59.933594 78.761719 59.09375 78.925781 C 58.253906 79.09375 57.410156 79.21875 56.558594 79.300781 C 55.707031 79.386719 54.855469 79.425781 54 79.425781 C 53.144531 79.425781 52.292969 79.386719 51.441406 79.300781 C 50.589844 79.21875 49.746094 79.09375 48.90625 78.925781 C 48.066406 78.761719 47.238281 78.550781 46.421875 78.304688 C 45.601562 78.058594 44.796875 77.769531 44.007812 77.441406 C 43.21875 77.117188 42.445312 76.753906 41.691406 76.347656 C 40.9375 75.945312 40.203125 75.507812 39.492188 75.035156 C 38.78125 74.558594 38.097656 74.050781 37.433594 73.511719 C 36.773438 72.96875 36.140625 72.398438 35.535156 71.792969 C 34.933594 71.191406 34.359375 70.558594 33.816406 69.898438 C 33.273438 69.238281 32.765625 68.554688 32.289062 67.84375 C 31.8125 67.132812 31.375 66.402344 30.972656 65.648438 C 30.570312 64.898438 30.203125 64.125 29.875 63.335938 C 29.546875 62.550781 29.261719 61.746094 29.011719 60.929688 C 28.765625 60.113281 28.558594 59.285156 28.390625 58.449219 C 28.222656 57.609375 28.097656 56.769531 28.015625 55.917969 C 27.929688 55.070312 27.886719 54.21875 27.886719 53.363281 C 27.886719 52.511719 27.929688 51.660156 28.015625 50.808594 C 28.097656 49.960938 28.222656 49.117188 28.390625 48.277344 C 28.558594 47.441406 28.765625 46.613281 29.011719 45.796875 C 29.261719 44.980469 29.546875 44.179688 29.875 43.390625 C 30.203125 42.601562 30.570312 41.832031 30.972656 41.078125 C 31.375 40.324219 31.8125 39.59375 32.289062 38.882812 C 32.765625 38.175781 33.273438 37.488281 33.816406 36.828125 C 34.359375 36.167969 34.933594 35.539062 35.535156 34.933594 C 36.140625 34.332031 36.773438 33.757812 37.433594 33.214844 C 38.097656 32.675781 38.78125 32.167969 39.492188 31.691406 C 40.203125 31.21875 40.9375 30.78125 41.691406 30.378906 C 42.445312 29.976562 43.21875 29.609375 44.007812 29.285156 C 44.796875 28.957031 45.601562 28.671875 46.421875 28.421875 C 47.238281 28.175781 48.066406 27.96875 48.90625 27.800781 C 49.746094 27.632812 50.589844 27.507812 51.441406 27.425781 C 52.292969 27.34375 53.144531 27.300781 54 27.300781 C 54.855469 27.300781 55.707031 27.34375 56.558594 27.425781 C 57.410156 27.507812 58.253906 27.632812 59.09375 27.800781 C 59.933594 27.96875 60.761719 28.175781 61.578125 28.421875 C 62.398438 28.671875 63.203125 28.957031 63.992188 29.285156 C 64.78125 29.609375 65.554688 29.976562 66.308594 30.378906 C 67.0625 30.78125 67.796875 31.21875 68.507812 31.691406 C 69.21875 32.167969 69.902344 32.675781 70.566406 33.214844 C 71.226562 33.757812 71.859375 34.332031 72.464844 34.933594 C 73.066406 35.539062 73.640625 36.167969 74.183594 36.828125 C 74.726562 37.488281 75.234375 38.175781 75.710938 38.882812 C 76.1875 39.59375 76.625 40.324219 77.027344 41.078125 C 77.429688 41.832031 77.796875 42.601562 78.125 43.390625 C 78.449219 44.179688 78.738281 44.980469 78.988281 45.796875 C 79.234375 46.613281 79.441406 47.441406 79.609375 48.277344 C 79.777344 49.117188 79.902344 49.960938 79.984375 50.808594 C 80.070312 51.660156 80.113281 52.511719 80.113281 53.363281 Z M 80.113281 53.363281 " fill-opacity="1" fill-rule="nonzero"/><path fill="#000000" d="M 54 80.542969 C 38.984375 80.542969 26.769531 68.347656 26.769531 53.363281 C 26.769531 38.375 38.988281 26.183594 54 26.183594 C 69.015625 26.183594 81.230469 38.378906 81.230469 53.363281 C 81.230469 68.351562 69.015625 80.542969 54 80.542969 Z M 54 28.417969 C 40.21875 28.417969 29.007812 39.609375 29.007812 53.363281 C 29.007812 67.121094 40.21875 78.3125 54 78.3125 C 67.78125 78.3125 78.992188 67.121094 78.992188 53.363281 C 78.992188 39.609375 67.78125 28.417969 54 28.417969 Z M 54 28.417969 " fill-opacity="1" fill-rule="nonzero"/><g clip-path="url(#7dc55e01da)"><path fill="#fbfbfb" d="M 64.820312 66.992188 C 64.535156 66.992188 64.253906 66.882812 64.035156 66.667969 C 63.601562 66.230469 63.601562 65.527344 64.035156 65.089844 L 75.4375 53.667969 L 64.035156 42.246094 C 63.601562 41.8125 63.601562 41.105469 64.035156 40.671875 C 64.46875 40.234375 65.171875 40.234375 65.609375 40.671875 L 77.796875 52.878906 C 78.007812 53.089844 78.125 53.375 78.125 53.667969 C 78.125 53.964844 78.007812 54.246094 77.796875 54.457031 L 65.609375 66.667969 C 65.390625 66.882812 65.105469 66.992188 64.820312 66.992188 Z M 64.820312 66.992188 " fill-opacity="1" fill-rule="nonzero"/></g><g clip-path="url(#b97419e8aa)"><path fill="#fbfbfb" d="M 43.449219 66.992188 C 43.164062 66.992188 42.878906 66.882812 42.664062 66.667969 L 30.472656 54.457031 C 30.265625 54.246094 30.148438 53.964844 30.148438 53.667969 C 30.148438 53.375 30.265625 53.089844 30.472656 52.878906 L 42.664062 40.671875 C 43.097656 40.234375 43.800781 40.234375 44.234375 40.671875 C 44.671875 41.105469 44.671875 41.8125 44.234375 42.246094 L 32.832031 53.667969 L 44.234375 65.089844 C 44.671875 65.527344 44.671875 66.230469 44.234375 66.667969 C 44.019531 66.882812 43.734375 66.992188 43.449219 66.992188 Z M 43.449219 66.992188 " fill-opacity="1" fill-rule="nonzero"/></g><g clip-path="url(#f6a05006a9)"><path fill="#fbfbfb" d="M 47.511719 71.597656 C 47.375 71.597656 47.238281 71.570312 47.105469 71.519531 C 46.53125 71.292969 46.25 70.644531 46.476562 70.074219 L 59.722656 36.445312 C 59.949219 35.875 60.59375 35.59375 61.167969 35.820312 C 61.738281 36.042969 62.019531 36.691406 61.792969 37.265625 L 48.546875 70.890625 C 48.375 71.328125 47.957031 71.597656 47.511719 71.597656 Z M 47.511719 71.597656 " fill-opacity="1" fill-rule="nonzero"/></g><g fill="#fbfbfb" fill-opacity="1"><g transform="translate(31.636784, 32.468022)"><g><path d="M 0.421875 -0.40625 L -5.546875 -6.65625 C -5.804688 -6.9375 -5.9375 -7.257812 -5.9375 -7.625 C -5.9375 -7.988281 -5.804688 -8.296875 -5.546875 -8.546875 L -4.25 -9.78125 C -3.988281 -10.03125 -3.675781 -10.144531 -3.3125 -10.125 C -2.945312 -10.101562 -2.632812 -9.953125 -2.375 -9.671875 L 3.59375 -3.421875 L 2.453125 -2.34375 L -0.484375 -5.421875 L -0.921875 -4.078125 L 1.5625 -1.484375 Z M -2.140625 -5.375 L -1.703125 -6.703125 L -3.40625 -8.5 L -4.296875 -7.640625 Z M -2.140625 -5.375 "/></g></g></g><g fill="#fbfbfb" fill-opacity="1"><g transform="translate(37.2813, 27.461512)"><g><path d="M 1.90625 -1.015625 L 0.515625 -0.265625 L -4.203125 -9.09375 L -2.8125 -9.84375 L -2.46875 -9.203125 C -2.476562 -9.335938 -2.460938 -9.472656 -2.421875 -9.609375 C -2.316406 -9.960938 -2.109375 -10.222656 -1.796875 -10.390625 L -1.484375 -10.5625 C -1.171875 -10.726562 -0.835938 -10.753906 -0.484375 -10.640625 C -0.140625 -10.523438 0.117188 -10.300781 0.296875 -9.96875 L 4.375 -2.34375 L 2.984375 -1.59375 L -1.015625 -9.09375 L -2.09375 -8.515625 Z M 1.90625 -1.015625 "/></g></g></g><g fill="#fbfbfb" fill-opacity="1"><g transform="translate(44.081931, 24.158088)"><g><path d="M 1.75 -0.40625 L -0.15625 -8.6875 L -1.6875 -8.328125 L -2.015625 -9.8125 L 2.609375 -10.875 L 2.9375 -9.390625 L 1.390625 -9.046875 L 3.296875 -0.765625 Z M 1.75 -0.40625 "/></g></g></g><g fill="#fbfbfb" fill-opacity="1"><g transform="translate(51.154852, 22.783643)"><g><path d="M 5.3125 -8.453125 L 5.015625 -1.1875 C 5.003906 -0.800781 4.863281 -0.476562 4.59375 -0.21875 C 4.332031 0.0390625 4.023438 0.160156 3.671875 0.140625 L 1.875 0.078125 C 1.519531 0.0546875 1.21875 -0.09375 0.96875 -0.375 C 0.726562 -0.65625 0.613281 -0.984375 0.625 -1.359375 L 0.921875 -8.625 C 0.929688 -9.007812 1.066406 -9.328125 1.328125 -9.578125 C 1.597656 -9.835938 1.910156 -9.957031 2.265625 -9.9375 L 4.0625 -9.875 C 4.414062 -9.851562 4.710938 -9.707031 4.953125 -9.4375 C 5.203125 -9.164062 5.320312 -8.835938 5.3125 -8.453125 Z M 3.453125 -1.375 L 3.71875 -8.359375 L 2.484375 -8.421875 L 2.21875 -1.4375 Z M 3.453125 -1.375 "/></g></g></g><g fill="#fbfbfb" fill-opacity="1"><g transform="translate(58.678473, 23.350134)"><g><path d="M 2.046875 0.65625 L 0.546875 0.171875 L 3.609375 -9.359375 L 5.109375 -8.875 L 4.875 -8.1875 C 4.976562 -8.28125 5.09375 -8.363281 5.21875 -8.4375 C 5.550781 -8.601562 5.882812 -8.628906 6.21875 -8.515625 L 6.5625 -8.40625 C 6.894531 -8.300781 7.140625 -8.082031 7.296875 -7.75 C 7.460938 -7.425781 7.488281 -7.082031 7.375 -6.71875 L 4.734375 1.515625 L 3.234375 1.03125 L 5.828125 -7.0625 L 4.640625 -7.4375 Z M 2.046875 0.65625 "/></g></g></g><g fill="#fbfbfb" fill-opacity="1"><g transform="translate(65.857683, 26.068638)"><g><path d="M 0.5 0.296875 L 5.609375 -8.3125 L 6.96875 -7.515625 L 1.859375 1.09375 Z M 0.5 0.296875 "/></g></g></g><g fill="#fbfbfb" fill-opacity="1"><g transform="translate(70.021162, 28.639029)"><g><path d="M 9.5625 -2.828125 L 4.546875 2.421875 C 4.273438 2.703125 3.957031 2.851562 3.59375 2.875 C 3.226562 2.894531 2.914062 2.78125 2.65625 2.53125 L 1.359375 1.296875 C 1.097656 1.046875 0.96875 0.734375 0.96875 0.359375 C 0.976562 -0.00390625 1.113281 -0.320312 1.375 -0.59375 L 6.390625 -5.84375 C 6.648438 -6.125 6.960938 -6.273438 7.328125 -6.296875 C 7.691406 -6.316406 8.003906 -6.203125 8.265625 -5.953125 L 9.5625 -4.71875 C 9.820312 -4.46875 9.953125 -4.160156 9.953125 -3.796875 C 9.953125 -3.429688 9.820312 -3.109375 9.5625 -2.828125 Z M 3.5 1.25 L 8.3125 -3.8125 L 7.421875 -4.671875 L 2.609375 0.390625 Z M 3.5 1.25 "/></g></g></g><g fill="#fbfbfb" fill-opacity="1"><g transform="translate(29.641667, 86.383077)"><g><path d="M 0.515625 0.359375 L 5.9375 -7.328125 C 6.175781 -7.679688 6.488281 -7.894531 6.875 -7.96875 C 7.269531 -8.039062 7.628906 -7.96875 7.953125 -7.75 L 9.546875 -6.625 C 9.867188 -6.394531 10.054688 -6.082031 10.109375 -5.6875 C 10.171875 -5.300781 10.082031 -4.929688 9.84375 -4.578125 L 4.421875 3.109375 L 3.015625 2.125 L 5.671875 -1.65625 L 4.1875 -1.84375 L 1.921875 1.359375 Z M 5.28125 -3.421875 L 6.796875 -3.234375 L 8.34375 -5.4375 L 7.25 -6.203125 Z M 5.28125 -3.421875 "/></g></g></g><g fill="#fbfbfb" fill-opacity="1"><g transform="translate(38.304583, 91.778121)"><g><path d="M 3.65625 1.328125 L 1.75 0.640625 L 3.65625 -10.265625 L 5.3125 -9.671875 L 4.0625 -2.765625 L 7.53125 -8.875 L 9.1875 -8.265625 Z M 3.65625 1.328125 "/></g></g></g><g fill="#fbfbfb" fill-opacity="1"><g transform="translate(47.777446, 94.638764)"><g><path d="M 6.15625 -8.9375 L 5.515625 -1.046875 C 5.472656 -0.628906 5.300781 -0.285156 5 -0.015625 C 4.707031 0.242188 4.367188 0.359375 3.984375 0.328125 L 2.046875 0.171875 C 1.648438 0.140625 1.328125 -0.03125 1.078125 -0.34375 C 0.828125 -0.664062 0.71875 -1.03125 0.75 -1.4375 L 1.390625 -9.328125 C 1.421875 -9.753906 1.585938 -10.097656 1.890625 -10.359375 C 2.191406 -10.617188 2.539062 -10.734375 2.9375 -10.703125 L 4.875 -10.546875 C 5.257812 -10.515625 5.578125 -10.34375 5.828125 -10.03125 C 6.078125 -9.726562 6.1875 -9.363281 6.15625 -8.9375 Z M 3.8125 -1.34375 L 4.421875 -8.921875 L 3.109375 -9.03125 L 2.5 -1.453125 Z M 3.8125 -1.34375 "/></g></g></g><g fill="#fbfbfb" fill-opacity="1"><g transform="translate(57.94151, 94.872749)"><g><path d="M 0.609375 -0.109375 L -1.296875 -10.84375 L 0.421875 -11.140625 L 2.046875 -2.015625 L 4.5 -2.453125 L 4.78125 -0.84375 Z M 0.609375 -0.109375 "/></g></g></g><g fill="#fbfbfb" fill-opacity="1"><g transform="translate(66.745763, 92.770008)"><g><path d="M 0.578125 -0.234375 L -3.546875 -10.328125 L -1.9375 -10.984375 L 2.1875 -0.890625 Z M 0.578125 -0.234375 "/></g></g></g><g fill="#fbfbfb" fill-opacity="1"><g transform="translate(73.11978, 89.862676)"><g><path d="M -1 -10.796875 L 3.5625 -4.328125 C 3.800781 -3.984375 3.890625 -3.613281 3.828125 -3.21875 C 3.773438 -2.832031 3.585938 -2.523438 3.265625 -2.296875 L 1.671875 -1.171875 C 1.347656 -0.953125 0.988281 -0.878906 0.59375 -0.953125 C 0.207031 -1.035156 -0.101562 -1.242188 -0.34375 -1.578125 L -4.90625 -8.046875 C -5.144531 -8.398438 -5.234375 -8.773438 -5.171875 -9.171875 C -5.117188 -9.566406 -4.929688 -9.875 -4.609375 -10.09375 L -3.015625 -11.21875 C -2.691406 -11.445312 -2.332031 -11.519531 -1.9375 -11.4375 C -1.550781 -11.363281 -1.238281 -11.148438 -1 -10.796875 Z M 2.078125 -3.46875 L -2.3125 -9.6875 L -3.40625 -8.921875 L 0.984375 -2.703125 Z M 2.078125 -3.46875 "/></g></g></g><g fill="#ffffff" fill-opacity="1"><g transform="translate(36.681503, 105.078138)"><g><path d="M 0.78125 0 C 0.75 0 0.726562 -0.015625 0.71875 -0.046875 L 0.09375 -2.765625 L 0.09375 -2.78125 C 0.09375 -2.8125 0.109375 -2.828125 0.140625 -2.828125 L 0.625 -2.828125 C 0.65625 -2.828125 0.675781 -2.8125 0.6875 -2.78125 L 0.984375 -1.234375 C 0.984375 -1.222656 0.984375 -1.21875 0.984375 -1.21875 C 0.992188 -1.21875 1.003906 -1.222656 1.015625 -1.234375 L 1.3125 -2.78125 C 1.3125 -2.8125 1.328125 -2.828125 1.359375 -2.828125 L 1.8125 -2.828125 C 1.832031 -2.828125 1.847656 -2.8125 1.859375 -2.78125 L 2.1875 -1.234375 C 2.1875 -1.222656 2.1875 -1.21875 2.1875 -1.21875 C 2.195312 -1.21875 2.203125 -1.222656 2.203125 -1.234375 L 2.5 -2.78125 C 2.5 -2.8125 2.515625 -2.828125 2.546875 -2.828125 L 3.015625 -2.828125 C 3.054688 -2.828125 3.070312 -2.804688 3.0625 -2.765625 L 2.46875 -0.046875 C 2.46875 -0.015625 2.453125 0 2.421875 0 L 1.96875 0 C 1.9375 0 1.921875 -0.015625 1.921875 -0.046875 L 1.59375 -1.671875 C 1.582031 -1.671875 1.570312 -1.671875 1.5625 -1.671875 L 1.265625 -0.046875 C 1.265625 -0.015625 1.25 0 1.21875 0 Z M 0.78125 0 "/></g></g></g><g fill="#ffffff" fill-opacity="1"><g transform="translate(40.441599, 105.078138)"><g><path d="M 1.9375 -2.375 C 1.9375 -2.363281 1.929688 -2.351562 1.921875 -2.34375 C 1.910156 -2.332031 1.894531 -2.328125 1.875 -2.328125 L 0.796875 -2.328125 C 0.785156 -2.328125 0.78125 -2.320312 0.78125 -2.3125 L 0.78125 -1.6875 C 0.78125 -1.675781 0.785156 -1.671875 0.796875 -1.671875 L 1.46875 -1.671875 C 1.488281 -1.671875 1.503906 -1.664062 1.515625 -1.65625 C 1.523438 -1.644531 1.53125 -1.628906 1.53125 -1.609375 L 1.53125 -1.21875 C 1.53125 -1.207031 1.523438 -1.195312 1.515625 -1.1875 C 1.503906 -1.175781 1.488281 -1.171875 1.46875 -1.171875 L 0.796875 -1.171875 C 0.785156 -1.171875 0.78125 -1.164062 0.78125 -1.15625 L 0.78125 -0.515625 C 0.78125 -0.492188 0.785156 -0.484375 0.796875 -0.484375 L 1.875 -0.484375 C 1.894531 -0.484375 1.910156 -0.476562 1.921875 -0.46875 C 1.929688 -0.457031 1.9375 -0.445312 1.9375 -0.4375 L 1.9375 -0.046875 C 1.9375 -0.0351562 1.929688 -0.0234375 1.921875 -0.015625 C 1.910156 -0.00390625 1.894531 0 1.875 0 L 0.265625 0 C 0.242188 0 0.226562 -0.00390625 0.21875 -0.015625 C 0.21875 -0.0234375 0.21875 -0.0351562 0.21875 -0.046875 L 0.21875 -2.78125 C 0.21875 -2.789062 0.21875 -2.800781 0.21875 -2.8125 C 0.226562 -2.820312 0.242188 -2.828125 0.265625 -2.828125 L 1.875 -2.828125 C 1.894531 -2.828125 1.910156 -2.820312 1.921875 -2.8125 C 1.929688 -2.800781 1.9375 -2.789062 1.9375 -2.78125 Z M 1.9375 -2.375 "/></g></g></g><g fill="#ffffff" fill-opacity="1"><g transform="translate(43.105601, 105.078138)"><g><path d="M 2.046875 -0.78125 C 2.046875 -0.53125 1.960938 -0.335938 1.796875 -0.203125 C 1.640625 -0.0664062 1.429688 0 1.171875 0 L 0.265625 0 C 0.242188 0 0.226562 -0.00390625 0.21875 -0.015625 C 0.21875 -0.0234375 0.21875 -0.0351562 0.21875 -0.046875 L 0.21875 -2.78125 C 0.21875 -2.789062 0.21875 -2.800781 0.21875 -2.8125 C 0.226562 -2.820312 0.242188 -2.828125 0.265625 -2.828125 L 1.109375 -2.828125 C 1.390625 -2.828125 1.609375 -2.757812 1.765625 -2.625 C 1.929688 -2.5 2.015625 -2.304688 2.015625 -2.046875 C 2.015625 -1.785156 1.910156 -1.59375 1.703125 -1.46875 C 1.691406 -1.457031 1.691406 -1.453125 1.703125 -1.453125 C 1.929688 -1.316406 2.046875 -1.09375 2.046875 -0.78125 Z M 0.796875 -2.328125 C 0.785156 -2.328125 0.78125 -2.320312 0.78125 -2.3125 L 0.78125 -1.6875 C 0.78125 -1.664062 0.785156 -1.65625 0.796875 -1.65625 L 1.109375 -1.65625 C 1.210938 -1.65625 1.296875 -1.6875 1.359375 -1.75 C 1.421875 -1.8125 1.453125 -1.894531 1.453125 -2 C 1.453125 -2.101562 1.421875 -2.179688 1.359375 -2.234375 C 1.304688 -2.296875 1.222656 -2.328125 1.109375 -2.328125 Z M 1.140625 -0.484375 C 1.242188 -0.484375 1.328125 -0.515625 1.390625 -0.578125 C 1.453125 -0.648438 1.484375 -0.742188 1.484375 -0.859375 C 1.484375 -0.972656 1.453125 -1.0625 1.390625 -1.125 C 1.328125 -1.1875 1.242188 -1.21875 1.140625 -1.21875 L 0.796875 -1.21875 C 0.785156 -1.21875 0.78125 -1.210938 0.78125 -1.203125 L 0.78125 -0.515625 C 0.78125 -0.492188 0.785156 -0.484375 0.796875 -0.484375 Z M 1.140625 -0.484375 "/></g></g></g><g fill="#ffffff" fill-opacity="1"><g transform="translate(45.906618, 105.078138)"><g/></g></g><g fill="#ffffff" fill-opacity="1"><g transform="translate(47.317368, 105.078138)"><g><path d="M 0.265625 0 C 0.242188 0 0.226562 -0.00390625 0.21875 -0.015625 C 0.21875 -0.0234375 0.21875 -0.0351562 0.21875 -0.046875 L 0.21875 -2.78125 C 0.21875 -2.789062 0.21875 -2.800781 0.21875 -2.8125 C 0.226562 -2.820312 0.242188 -2.828125 0.265625 -2.828125 L 1.125 -2.828125 C 1.3125 -2.828125 1.472656 -2.789062 1.609375 -2.71875 C 1.742188 -2.65625 1.847656 -2.5625 1.921875 -2.4375 C 2.003906 -2.3125 2.046875 -2.164062 2.046875 -2 L 2.046875 -0.8125 C 2.046875 -0.65625 2.003906 -0.515625 1.921875 -0.390625 C 1.847656 -0.265625 1.742188 -0.164062 1.609375 -0.09375 C 1.472656 -0.03125 1.3125 0 1.125 0 Z M 0.78125 -0.515625 C 0.78125 -0.492188 0.785156 -0.484375 0.796875 -0.484375 L 1.125 -0.484375 C 1.226562 -0.484375 1.3125 -0.519531 1.375 -0.59375 C 1.4375 -0.664062 1.46875 -0.765625 1.46875 -0.890625 L 1.46875 -1.9375 C 1.46875 -2.0625 1.4375 -2.15625 1.375 -2.21875 C 1.3125 -2.289062 1.226562 -2.328125 1.125 -2.328125 L 0.796875 -2.328125 C 0.785156 -2.328125 0.78125 -2.320312 0.78125 -2.3125 Z M 0.78125 -0.515625 "/></g></g></g><g fill="#ffffff" fill-opacity="1"><g transform="translate(50.126442, 105.078138)"><g><path d="M 1.9375 -2.375 C 1.9375 -2.363281 1.929688 -2.351562 1.921875 -2.34375 C 1.910156 -2.332031 1.894531 -2.328125 1.875 -2.328125 L 0.796875 -2.328125 C 0.785156 -2.328125 0.78125 -2.320312 0.78125 -2.3125 L 0.78125 -1.6875 C 0.78125 -1.675781 0.785156 -1.671875 0.796875 -1.671875 L 1.46875 -1.671875 C 1.488281 -1.671875 1.503906 -1.664062 1.515625 -1.65625 C 1.523438 -1.644531 1.53125 -1.628906 1.53125 -1.609375 L 1.53125 -1.21875 C 1.53125 -1.207031 1.523438 -1.195312 1.515625 -1.1875 C 1.503906 -1.175781 1.488281 -1.171875 1.46875 -1.171875 L 0.796875 -1.171875 C 0.785156 -1.171875 0.78125 -1.164062 0.78125 -1.15625 L 0.78125 -0.515625 C 0.78125 -0.492188 0.785156 -0.484375 0.796875 -0.484375 L 1.875 -0.484375 C 1.894531 -0.484375 1.910156 -0.476562 1.921875 -0.46875 C 1.929688 -0.457031 1.9375 -0.445312 1.9375 -0.4375 L 1.9375 -0.046875 C 1.9375 -0.0351562 1.929688 -0.0234375 1.921875 -0.015625 C 1.910156 -0.00390625 1.894531 0 1.875 0 L 0.265625 0 C 0.242188 0 0.226562 -0.00390625 0.21875 -0.015625 C 0.21875 -0.0234375 0.21875 -0.0351562 0.21875 -0.046875 L 0.21875 -2.78125 C 0.21875 -2.789062 0.21875 -2.800781 0.21875 -2.8125 C 0.226562 -2.820312 0.242188 -2.828125 0.265625 -2.828125 L 1.875 -2.828125 C 1.894531 -2.828125 1.910156 -2.820312 1.921875 -2.8125 C 1.929688 -2.800781 1.9375 -2.789062 1.9375 -2.78125 Z M 1.9375 -2.375 "/></g></g></g><g fill="#ffffff" fill-opacity="1"><g transform="translate(52.790444, 105.078138)"><g><path d="M 0.859375 0 C 0.828125 0 0.804688 -0.015625 0.796875 -0.046875 L 0.09375 -2.765625 L 0.09375 -2.78125 C 0.09375 -2.8125 0.109375 -2.828125 0.140625 -2.828125 L 0.65625 -2.828125 C 0.6875 -2.828125 0.703125 -2.8125 0.703125 -2.78125 L 1.109375 -0.90625 C 1.117188 -0.894531 1.125 -0.890625 1.125 -0.890625 C 1.132812 -0.890625 1.140625 -0.894531 1.140625 -0.90625 L 1.546875 -2.78125 C 1.546875 -2.8125 1.5625 -2.828125 1.59375 -2.828125 L 2.09375 -2.828125 C 2.132812 -2.828125 2.148438 -2.804688 2.140625 -2.765625 L 1.421875 -0.046875 C 1.421875 -0.015625 1.40625 0 1.375 0 Z M 0.859375 0 "/></g></g></g><g fill="#ffffff" fill-opacity="1"><g transform="translate(55.631756, 105.078138)"><g><path d="M 1.9375 -2.375 C 1.9375 -2.363281 1.929688 -2.351562 1.921875 -2.34375 C 1.910156 -2.332031 1.894531 -2.328125 1.875 -2.328125 L 0.796875 -2.328125 C 0.785156 -2.328125 0.78125 -2.320312 0.78125 -2.3125 L 0.78125 -1.6875 C 0.78125 -1.675781 0.785156 -1.671875 0.796875 -1.671875 L 1.46875 -1.671875 C 1.488281 -1.671875 1.503906 -1.664062 1.515625 -1.65625 C 1.523438 -1.644531 1.53125 -1.628906 1.53125 -1.609375 L 1.53125 -1.21875 C 1.53125 -1.207031 1.523438 -1.195312 1.515625 -1.1875 C 1.503906 -1.175781 1.488281 -1.171875 1.46875 -1.171875 L 0.796875 -1.171875 C 0.785156 -1.171875 0.78125 -1.164062 0.78125 -1.15625 L 0.78125 -0.515625 C 0.78125 -0.492188 0.785156 -0.484375 0.796875 -0.484375 L 1.875 -0.484375 C 1.894531 -0.484375 1.910156 -0.476562 1.921875 -0.46875 C 1.929688 -0.457031 1.9375 -0.445312 1.9375 -0.4375 L 1.9375 -0.046875 C 1.9375 -0.0351562 1.929688 -0.0234375 1.921875 -0.015625 C 1.910156 -0.00390625 1.894531 0 1.875 0 L 0.265625 0 C 0.242188 0 0.226562 -0.00390625 0.21875 -0.015625 C 0.21875 -0.0234375 0.21875 -0.0351562 0.21875 -0.046875 L 0.21875 -2.78125 C 0.21875 -2.789062 0.21875 -2.800781 0.21875 -2.8125 C 0.226562 -2.820312 0.242188 -2.828125 0.265625 -2.828125 L 1.875 -2.828125 C 1.894531 -2.828125 1.910156 -2.820312 1.921875 -2.8125 C 1.929688 -2.800781 1.9375 -2.789062 1.9375 -2.78125 Z M 1.9375 -2.375 "/></g></g></g><g fill="#ffffff" fill-opacity="1"><g transform="translate(58.295758, 105.078138)"><g><path d="M 0.265625 0 C 0.242188 0 0.226562 -0.00390625 0.21875 -0.015625 C 0.21875 -0.0234375 0.21875 -0.0351562 0.21875 -0.046875 L 0.21875 -2.78125 C 0.21875 -2.789062 0.21875 -2.800781 0.21875 -2.8125 C 0.226562 -2.820312 0.242188 -2.828125 0.265625 -2.828125 L 0.734375 -2.828125 C 0.742188 -2.828125 0.753906 -2.820312 0.765625 -2.8125 C 0.773438 -2.800781 0.78125 -2.789062 0.78125 -2.78125 L 0.78125 -0.515625 C 0.78125 -0.492188 0.785156 -0.484375 0.796875 -0.484375 L 1.875 -0.484375 C 1.894531 -0.484375 1.910156 -0.476562 1.921875 -0.46875 C 1.929688 -0.457031 1.9375 -0.445312 1.9375 -0.4375 L 1.9375 -0.046875 C 1.9375 -0.0351562 1.929688 -0.0234375 1.921875 -0.015625 C 1.910156 -0.00390625 1.894531 0 1.875 0 Z M 0.265625 0 "/></g></g></g><g fill="#ffffff" fill-opacity="1"><g transform="translate(60.911402, 105.078138)"><g><path d="M 1.09375 0.03125 C 0.914062 0.03125 0.753906 -0.00390625 0.609375 -0.078125 C 0.472656 -0.148438 0.363281 -0.253906 0.28125 -0.390625 C 0.207031 -0.523438 0.171875 -0.6875 0.171875 -0.875 L 0.171875 -1.953125 C 0.171875 -2.128906 0.207031 -2.285156 0.28125 -2.421875 C 0.363281 -2.554688 0.472656 -2.660156 0.609375 -2.734375 C 0.753906 -2.816406 0.914062 -2.859375 1.09375 -2.859375 C 1.28125 -2.859375 1.445312 -2.816406 1.59375 -2.734375 C 1.738281 -2.660156 1.847656 -2.554688 1.921875 -2.421875 C 2.003906 -2.285156 2.046875 -2.128906 2.046875 -1.953125 L 2.046875 -0.875 C 2.046875 -0.6875 2.003906 -0.523438 1.921875 -0.390625 C 1.847656 -0.253906 1.738281 -0.148438 1.59375 -0.078125 C 1.445312 -0.00390625 1.28125 0.03125 1.09375 0.03125 Z M 1.09375 -0.453125 C 1.207031 -0.453125 1.296875 -0.488281 1.359375 -0.5625 C 1.429688 -0.632812 1.46875 -0.726562 1.46875 -0.84375 L 1.46875 -1.96875 C 1.46875 -2.082031 1.429688 -2.175781 1.359375 -2.25 C 1.296875 -2.320312 1.207031 -2.359375 1.09375 -2.359375 C 0.988281 -2.359375 0.898438 -2.320312 0.828125 -2.25 C 0.765625 -2.175781 0.734375 -2.082031 0.734375 -1.96875 L 0.734375 -0.84375 C 0.734375 -0.726562 0.765625 -0.632812 0.828125 -0.5625 C 0.898438 -0.488281 0.988281 -0.453125 1.09375 -0.453125 Z M 1.09375 -0.453125 "/></g></g></g><g fill="#ffffff" fill-opacity="1"><g transform="translate(63.720476, 105.078138)"><g><path d="M 1.21875 -2.828125 C 1.382812 -2.828125 1.53125 -2.789062 1.65625 -2.71875 C 1.78125 -2.644531 1.875 -2.539062 1.9375 -2.40625 C 2.007812 -2.28125 2.046875 -2.128906 2.046875 -1.953125 C 2.046875 -1.785156 2.007812 -1.640625 1.9375 -1.515625 C 1.875 -1.390625 1.78125 -1.289062 1.65625 -1.21875 C 1.53125 -1.144531 1.382812 -1.109375 1.21875 -1.109375 L 0.796875 -1.109375 C 0.773438 -1.109375 0.765625 -1.101562 0.765625 -1.09375 L 0.765625 -0.046875 C 0.765625 -0.0351562 0.757812 -0.0234375 0.75 -0.015625 C 0.738281 -0.00390625 0.726562 0 0.71875 0 L 0.25 0 C 0.238281 0 0.226562 -0.00390625 0.21875 -0.015625 C 0.207031 -0.0234375 0.203125 -0.0351562 0.203125 -0.046875 L 0.203125 -2.78125 C 0.203125 -2.789062 0.207031 -2.800781 0.21875 -2.8125 C 0.226562 -2.820312 0.238281 -2.828125 0.25 -2.828125 Z M 1.125 -1.5625 C 1.238281 -1.5625 1.328125 -1.597656 1.390625 -1.671875 C 1.453125 -1.742188 1.484375 -1.835938 1.484375 -1.953125 C 1.484375 -2.066406 1.453125 -2.15625 1.390625 -2.21875 C 1.328125 -2.289062 1.238281 -2.328125 1.125 -2.328125 L 0.796875 -2.328125 C 0.773438 -2.328125 0.765625 -2.320312 0.765625 -2.3125 L 0.765625 -1.59375 C 0.765625 -1.570312 0.773438 -1.5625 0.796875 -1.5625 Z M 1.125 -1.5625 "/></g></g></g><g fill="#ffffff" fill-opacity="1"><g transform="translate(66.465075, 105.078138)"><g><path d="M 1.9375 -2.375 C 1.9375 -2.363281 1.929688 -2.351562 1.921875 -2.34375 C 1.910156 -2.332031 1.894531 -2.328125 1.875 -2.328125 L 0.796875 -2.328125 C 0.785156 -2.328125 0.78125 -2.320312 0.78125 -2.3125 L 0.78125 -1.6875 C 0.78125 -1.675781 0.785156 -1.671875 0.796875 -1.671875 L 1.46875 -1.671875 C 1.488281 -1.671875 1.503906 -1.664062 1.515625 -1.65625 C 1.523438 -1.644531 1.53125 -1.628906 1.53125 -1.609375 L 1.53125 -1.21875 C 1.53125 -1.207031 1.523438 -1.195312 1.515625 -1.1875 C 1.503906 -1.175781 1.488281 -1.171875 1.46875 -1.171875 L 0.796875 -1.171875 C 0.785156 -1.171875 0.78125 -1.164062 0.78125 -1.15625 L 0.78125 -0.515625 C 0.78125 -0.492188 0.785156 -0.484375 0.796875 -0.484375 L 1.875 -0.484375 C 1.894531 -0.484375 1.910156 -0.476562 1.921875 -0.46875 C 1.929688 -0.457031 1.9375 -0.445312 1.9375 -0.4375 L 1.9375 -0.046875 C 1.9375 -0.0351562 1.929688 -0.0234375 1.921875 -0.015625 C 1.910156 -0.00390625 1.894531 0 1.875 0 L 0.265625 0 C 0.242188 0 0.226562 -0.00390625 0.21875 -0.015625 C 0.21875 -0.0234375 0.21875 -0.0351562 0.21875 -0.046875 L 0.21875 -2.78125 C 0.21875 -2.789062 0.21875 -2.800781 0.21875 -2.8125 C 0.226562 -2.820312 0.242188 -2.828125 0.265625 -2.828125 L 1.875 -2.828125 C 1.894531 -2.828125 1.910156 -2.820312 1.921875 -2.8125 C 1.929688 -2.800781 1.9375 -2.789062 1.9375 -2.78125 Z M 1.9375 -2.375 "/></g></g></g><g fill="#ffffff" fill-opacity="1"><g transform="translate(69.129077, 105.078138)"><g><path d="M 1.546875 0 C 1.515625 0 1.492188 -0.015625 1.484375 -0.046875 L 1.078125 -1.15625 C 1.066406 -1.164062 1.0625 -1.171875 1.0625 -1.171875 L 0.796875 -1.171875 C 0.785156 -1.171875 0.78125 -1.164062 0.78125 -1.15625 L 0.78125 -0.046875 C 0.78125 -0.0351562 0.773438 -0.0234375 0.765625 -0.015625 C 0.753906 -0.00390625 0.742188 0 0.734375 0 L 0.265625 0 C 0.242188 0 0.226562 -0.00390625 0.21875 -0.015625 C 0.21875 -0.0234375 0.21875 -0.0351562 0.21875 -0.046875 L 0.21875 -2.78125 C 0.21875 -2.789062 0.21875 -2.800781 0.21875 -2.8125 C 0.226562 -2.820312 0.242188 -2.828125 0.265625 -2.828125 L 1.25 -2.828125 C 1.40625 -2.828125 1.546875 -2.789062 1.671875 -2.71875 C 1.796875 -2.644531 1.890625 -2.539062 1.953125 -2.40625 C 2.023438 -2.28125 2.0625 -2.132812 2.0625 -1.96875 C 2.0625 -1.800781 2.019531 -1.648438 1.9375 -1.515625 C 1.863281 -1.390625 1.757812 -1.296875 1.625 -1.234375 C 1.613281 -1.234375 1.609375 -1.226562 1.609375 -1.21875 L 2.078125 -0.0625 C 2.078125 -0.0507812 2.078125 -0.0390625 2.078125 -0.03125 C 2.078125 -0.0078125 2.0625 0 2.03125 0 Z M 0.796875 -2.328125 C 0.785156 -2.328125 0.78125 -2.320312 0.78125 -2.3125 L 0.78125 -1.625 C 0.78125 -1.613281 0.785156 -1.609375 0.796875 -1.609375 L 1.15625 -1.609375 C 1.25 -1.609375 1.328125 -1.640625 1.390625 -1.703125 C 1.453125 -1.765625 1.484375 -1.851562 1.484375 -1.96875 C 1.484375 -2.082031 1.453125 -2.171875 1.390625 -2.234375 C 1.328125 -2.296875 1.25 -2.328125 1.15625 -2.328125 Z M 0.796875 -2.328125 "/></g></g></g></svg>